{"title":"Un.Prophete.2009.480p.BRRip.AC3.Xvid-SOuVLaAKI","uid":5866706,"size":2782986029,"categoryP":"video","categoryS":"movies","magnet":"?xt=urn:btih:21d49e69dc03fe0ec3d0c39048084f9a653582e4&amp;dn=Un.Prophete.2009.480p.BRRip.AC3.Xvid-SOuVLaAKI&amp;tr=udp%3A%2F%2Ftracker.openbittorrent.com%3A80&amp;tr=udp%3A%2F%2Fopen.demonii.com%3A1337&amp;tr=udp%3A%2F%2Ftracker.coppersurfer.tk%3A6969&amp;tr=udp%3A%2F%2Fexodus.desync.com%3A6969","seeders":0,"leechers":1,"uploader":"mfccorrea","files":5,"time":1286234674,"description":"An impressionable and vulnerable Arabic man gets thrust into a hellish prison, and ironically discovers greater opportunities for success than he ever possessed outside of the bars, in this violent melodrama from French succÃƒÂ¨s d\\'estime Jacques Audiard (The Beat That My Heart Skipped). Tahar Rahim  stars as Malik El Djebena, a petty criminal incarcerated for six years. Once inside and subjected to all of the standard brutalities that most prisoners endure, he is quickly educated in the \\&quot;ways\\&quot; of the prison, an institution torn violently between gangs of Corsicans and Arabs. The head Corsican thug, CÃƒÂ©sar Luciani (Niels Arestrup), offers Malik an ultimatum: either he rubs out an Arab inmate named Reyeb (Hichem Yacoubi), or he himself dies. Not only does Malik succeed with the hit, he earns the begrudging respect of the other prisoners, and -- after securing several days\\' release for good behavior -- uses off-time to forge a deeper and more multi-layered network of criminal ties than he ever dreamed possible. But as his own power and confidence grow, they threaten to outstrip CÃƒÂ©sar\\'s own insistence on submission and obedience at all costs. \n   General\n      Complete name : Un Prophete.avi\n      Format : AVI\n      Format/Info : Audio Video Interleave\n      Format profile : OpenDML\n      File size : 2.59 GiB\n      Duration : 2h 35mn\n      Overall bit rate : 2 393 Kbps\n      Writing application : VirtualDubMod 1.5.10.2 (build 2542/release)\n      Writing library : VirtualDubMod build 2542/release\n   Video #0\n      ID : 0\n      Format : MPEG-4 Visual\n      Format profile : AdvancedSimple@L5\n      Format settings, BVOP : Yes\n      Format settings, QPel : No\n      Format settings, GMC : No warppoints\n      Format settings, Matrix : Default (H.263)\n      Muxing mode : Packed bitstream\n      Codec ID : XVID\n      Codec ID/Hint : XviD\n      Duration : 2h 35mn\n      Bit rate : 1 935 Kbps\n      Width : 720 pixels\n      Height : 384 pixels\n      Display aspect ratio : 1.875\n      Frame rate : 24.000 fps\n      Resolution : 24 bits\n      Colorimetry : 4:2:0\n      Scan type : Progressive\n      Bits/(Pixel*Frame) : 0.292\n      Stream size : 2.10 GiB (81%)\n      Writing library : XviD 1.2.1 (UTC 2008-12-04)\n   Audio #1\n      ID : 1\n      Format : AC-3\n      Format/Info : Audio Coding 3\n      Codec ID : 2000\n      Duration : 2h 35mn\n      Bit rate mode : Constant\n      Bit rate : 448 Kbps\n      Channel(s) : 6 channels\n      Channel positions : Front: L C R, Surround: L R, LFE\n      Sampling rate : 48.0 KHz\n      Stream size : 497 MiB (19%)\n      Alignment : Split accross interleaves\n      Interleave, duration : 64 ms (1.54 video frames)\n      Interleave, preload duration : 500 ms\n &lt;a href=&quot;\nhttp://www.imdb.com/title/tt1235166/&quot; rel=&quot;nofollow&quot; target=&quot;_NEW&quot;&gt;\nhttp://www.imdb.com/title/tt1235166/&lt;/a&gt;\n\nFrench and Corsican audio; English, French, Spanish and Portuguese subtitles\n\nUn.Prophete.2009.480p.BRRip.AC3.Xvid-SOuVLaAKI","torrent":{"xt":"urn:btih:21d49e69dc03fe0ec3d0c39048084f9a653582e4","amp;dn":"Un.Prophete.2009.480p.BRRip.AC3.Xvid-SOuVLaAKI","amp;tr":["udp%3A%2F%2Ftracker.openbittorrent.com%3A80","udp%3A%2F%2Fopen.demonii.com%3A1337","udp%3A%2F%2Ftracker.coppersurfer.tk%3A6969","udp%3A%2F%2Fexodus.desync.com%3A6969"],"infoHash":"21d49e69dc03fe0ec3d0c39048084f9a653582e4","infoHashBuffer":{"type":"Buffer","data":[33,212,158,105,220,3,254,14,195,208,195,144,72,8,79,154,101,53,130,228]},"announce":[],"urlList":[]}}